# xmcd CD database file
#
# Track frame offsets:
#	150
#	10247
#	23175
#	37127
#	49395
#	63967
#	74972
#	85337
#	99950
#	109887
#	122065
#	134365
#	145177
#	157127
#	168345
#	182445
#	191322
#	202972
#	215505
#	225427
#	243800
#
# Disc length: 3413 seconds
#
# Revision: 1
# Processed by: cddbd v1.5.2PL0 Copyright (c) Steve Scherf et al.
# Submitted via: CDex 1.70beta2
#
DISCID=290d5315
DTITLE=Lost Highway Records - Historic Lost Highway
DYEAR=1997
DGENRE=Bluegrass
TTITLE0=Let Me Love You One More Time
TTITLE1=Excuse Me, I Think I've Got A Headache
TTITLE2=Lord, Let Me Die
TTITLE3=Cabin On A Mountain
TTITLE4=Drink Up And Go Home
TTITLE5=My Old Kentucky Home
TTITLE6=I Won't Be Hangin' Around
TTITLE7=This Road Leads Home
TTITLE8=I'd Worship You
TTITLE9=Are You Afraid To Die
TTITLE10=That's How I Can Count On You
TTITLE11=Blue Ridge Mountain Home
TTITLE12=I'll Never Love Another
TTITLE13=Kentucky Mandolin
TTITLE14=White Dove
TTITLE15=Long Gone
TTITLE16=Footprints In The Snow
TTITLE17=Dear One
TTITLE18=Sledd Ridin'
TTITLE19=A Face In The Crowd
TTITLE20=Memories Of The Past
EXTD=YEAR: 1997
EXTT0=
EXTT1=
EXTT2=
EXTT3=
EXTT4=
EXTT5=
EXTT6=
EXTT7=
EXTT8=
EXTT9=
EXTT10=
EXTT11=
EXTT12=
EXTT13=
EXTT14=
EXTT15=
EXTT16=
EXTT17=
EXTT18=
EXTT19=
EXTT20=
PLAYORDER=
